<?xml version="1.0" encoding="UTF-8"?>
<svg width="89px" height="95px" viewBox="0 0 89 95" version="1.1" xmlns="http://www.w3.org/2000/svg" xmlns:xlink="http://www.w3.org/1999/xlink">
    <!-- Generator: Sketch 39.1 (31720) - http://www.bohemiancoding.com/sketch -->
    <title>Combined Shape</title>
    <desc>Created with Sketch.</desc>
    <defs></defs>
    <g id="Landing-Page" stroke="none" stroke-width="1" fill="none" fill-rule="evenodd">
        <g id="Desktop---Landing" transform="translate(-4100.000000, -148.000000)" fill="#45A4FE">
            <path d="M4100,243 L4139,243 L4139,232 L4100,232 L4100,243 Z M4111,232 L4111,198 L4100,198 L4100,232 L4111,232 Z M4189,243 L4150,243 L4150,232 L4189,232 L4189,243 Z M4178,232 L4178,198 L4189,198 L4189,232 L4178,232 Z M4100,148 L4139,148 L4139,159 L4100,159 L4100,148 Z M4111,159 L4111,193 L4100,193 L4100,159 L4111,159 Z M4189,148 L4150,148 L4150,159 L4189,159 L4189,148 Z M4178,159 L4178,193 L4189,193 L4189,159 L4178,159 Z" id="Combined-Shape"></path>
        </g>
    </g>
</svg>